<svg width="110" height="110" viewBox="0 0 110 110" fill="none" xmlns="http://www.w3.org/2000/svg" xmlns:xlink="http://www.w3.org/1999/xlink">
<path d="M71.667,56.5C72.771,56.5 73.667,55.605 73.667,54.5C73.667,53.395 72.771,52.5 71.667,52.5L71.667,56.5ZM36.667,52.5C35.562,52.5 34.667,53.395 34.667,54.5C34.667,55.605 35.562,56.5 36.667,56.5L36.667,52.5ZM106.667,54.5L108.667,54.5L106.667,54.5ZM54.167,2L54.167,4L54.167,2ZM71.667,52.5L36.667,52.5L36.667,56.5L71.667,56.5L71.667,52.5ZM104.667,54.5C104.667,61.132 103.36,67.699 100.823,73.826L104.518,75.356C107.257,68.744 108.667,61.657 108.667,54.5L104.667,54.5ZM100.823,73.826C98.285,79.952 94.565,85.52 89.875,90.209L92.704,93.037C97.765,87.977 101.779,81.968 104.518,75.356L100.823,73.826ZM89.875,90.209C85.186,94.898 79.619,98.618 73.492,101.156L75.023,104.851C81.635,102.113 87.643,98.098 92.704,93.037L89.875,90.209ZM73.492,101.156C67.365,103.694 60.798,105 54.167,105L54.167,109C61.324,109 68.411,107.59 75.023,104.851L73.492,101.156ZM54.167,105C47.535,105 40.968,103.694 34.841,101.156L33.31,104.851C39.923,107.59 47.01,109 54.167,109L54.167,105ZM34.841,101.156C28.714,98.618 23.147,94.898 18.458,90.209L15.629,93.037C20.69,98.098 26.698,102.113 33.31,104.851L34.841,101.156ZM18.458,90.209C13.768,85.52 10.049,79.952 7.511,73.826L3.815,75.356C6.554,81.968 10.569,87.977 15.629,93.037L18.458,90.209ZM7.511,73.826C4.973,67.699 3.667,61.132 3.667,54.5L-0.333,54.5C-0.333,61.657 1.076,68.744 3.815,75.356L7.511,73.826ZM3.667,54.5C3.667,41.107 8.987,28.262 18.458,18.791L15.629,15.963C5.409,26.183 -0.333,40.046 -0.333,54.5L3.667,54.5ZM18.458,18.791C27.928,9.321 40.773,4 54.167,4L54.167,0C39.712,0 25.85,5.742 15.629,15.963L18.458,18.791ZM54.167,4C67.56,4 80.405,9.321 89.875,18.791L92.704,15.963C82.483,5.742 68.621,0 54.167,0L54.167,4ZM89.875,18.791C99.346,28.262 104.667,41.107 104.667,54.5L108.667,54.5C108.667,40.046 102.925,26.183 92.704,15.963L89.875,18.791Z" fill="#000000"/>
<rect  x="51.667" y="74" width="38" height="4" rx="10" transform="rotate(-180 51.667 74)" fill="#000000"/>
</svg>
