<svg width="110" height="110" viewBox="0 0 110 110" fill="none" xmlns="http://www.w3.org/2000/svg" xmlns:xlink="http://www.w3.org/1999/xlink">
<path d="M72.667,56.5C73.771,56.5 74.667,55.605 74.667,54.5C74.667,53.395 73.771,52.5 72.667,52.5L72.667,56.5ZM37.667,52.5C36.562,52.5 35.667,53.395 35.667,54.5C35.667,55.605 36.562,56.5 37.667,56.5L37.667,52.5ZM107.667,54.5L109.667,54.5L107.667,54.5ZM55.167,2L55.167,4L55.167,2ZM72.667,52.5L37.667,52.5L37.667,56.5L72.667,56.5L72.667,52.5ZM105.667,54.5C105.667,61.132 104.36,67.699 101.823,73.826L105.518,75.356C108.257,68.744 109.667,61.657 109.667,54.5L105.667,54.5ZM101.823,73.826C99.285,79.952 95.565,85.52 90.875,90.209L93.704,93.037C98.765,87.977 102.779,81.968 105.518,75.356L101.823,73.826ZM90.875,90.209C86.186,94.898 80.619,98.618 74.492,101.156L76.023,104.851C82.635,102.113 88.643,98.098 93.704,93.037L90.875,90.209ZM74.492,101.156C68.365,103.694 61.798,105 55.167,105L55.167,109C62.324,109 69.411,107.59 76.023,104.851L74.492,101.156ZM55.167,105C48.535,105 41.968,103.694 35.841,101.156L34.31,104.851C40.923,107.59 48.01,109 55.167,109L55.167,105ZM35.841,101.156C29.714,98.618 24.147,94.898 19.458,90.209L16.629,93.037C21.69,98.098 27.698,102.113 34.31,104.851L35.841,101.156ZM19.458,90.209C14.768,85.52 11.048,79.952 8.511,73.826L4.815,75.356C7.554,81.968 11.568,87.977 16.629,93.037L19.458,90.209ZM8.511,73.826C5.973,67.699 4.667,61.132 4.667,54.5L0.667,54.5C0.667,61.657 2.076,68.744 4.815,75.356L8.511,73.826ZM4.667,54.5C4.667,41.107 9.987,28.262 19.458,18.791L16.629,15.963C6.408,26.183 0.667,40.046 0.667,54.5L4.667,54.5ZM19.458,18.791C28.928,9.321 41.773,4 55.167,4L55.167,0C40.712,0 26.85,5.742 16.629,15.963L19.458,18.791ZM55.167,4C68.56,4 81.405,9.321 90.875,18.791L93.704,15.963C83.483,5.742 69.621,0 55.167,0L55.167,4ZM90.875,18.791C100.346,28.262 105.667,41.107 105.667,54.5L109.667,54.5C109.667,40.046 103.925,26.183 93.704,15.963L90.875,18.791Z" fill="#000000"/>
<rect  x="52.667" y="74" width="38" height="4" rx="10" transform="rotate(-180 52.667 74)" fill="#000000"/>
</svg>
