<svg width="110" height="110" viewBox="0 0 110 110" fill="none" xmlns="http://www.w3.org/2000/svg" xmlns:xlink="http://www.w3.org/1999/xlink">
<path d="M71.333,56.5C72.438,56.5 73.333,55.605 73.333,54.5C73.333,53.395 72.438,52.5 71.333,52.5L71.333,56.5ZM36.333,52.5C35.229,52.5 34.333,53.395 34.333,54.5C34.333,55.605 35.229,56.5 36.333,56.5L36.333,52.5ZM106.333,54.5L108.333,54.5L106.333,54.5ZM53.833,2L53.833,4L53.833,2ZM71.333,52.5L36.333,52.5L36.333,56.5L71.333,56.5L71.333,52.5ZM104.333,54.5C104.333,61.132 103.027,67.699 100.489,73.826L104.185,75.356C106.924,68.744 108.333,61.657 108.333,54.5L104.333,54.5ZM100.489,73.826C97.951,79.952 94.232,85.52 89.542,90.209L92.371,93.037C97.432,87.977 101.446,81.968 104.185,75.356L100.489,73.826ZM89.542,90.209C84.853,94.898 79.286,98.618 73.159,101.156L74.69,104.851C81.302,102.113 87.31,98.098 92.371,93.037L89.542,90.209ZM73.159,101.156C67.032,103.694 60.465,105 53.833,105L53.833,109C60.99,109 68.077,107.59 74.69,104.851L73.159,101.156ZM53.833,105C47.202,105 40.635,103.694 34.508,101.156L32.977,104.851C39.589,107.59 46.676,109 53.833,109L53.833,105ZM34.508,101.156C28.381,98.618 22.814,94.898 18.125,90.209L15.296,93.037C20.357,98.098 26.365,102.113 32.977,104.851L34.508,101.156ZM18.125,90.209C13.435,85.52 9.715,79.952 7.178,73.826L3.482,75.356C6.221,81.968 10.235,87.977 15.296,93.037L18.125,90.209ZM7.178,73.826C4.64,67.699 3.333,61.132 3.333,54.5L-0.667,54.5C-0.667,61.657 0.743,68.744 3.482,75.356L7.178,73.826ZM3.333,54.5C3.333,41.107 8.654,28.262 18.125,18.791L15.296,15.963C5.075,26.183 -0.667,40.046 -0.667,54.5L3.333,54.5ZM18.125,18.791C27.595,9.321 40.44,4 53.833,4L53.833,0C39.379,0 25.517,5.742 15.296,15.963L18.125,18.791ZM53.833,4C67.227,4 80.072,9.321 89.542,18.791L92.371,15.963C82.15,5.742 68.288,0 53.833,0L53.833,4ZM89.542,18.791C99.013,28.262 104.333,41.107 104.333,54.5L108.333,54.5C108.333,40.046 102.591,26.183 92.371,15.963L89.542,18.791Z" fill="#000000"/>
<rect  x="51.333" y="74" width="38" height="4" rx="10" transform="rotate(-180 51.333 74)" fill="#000000"/>
</svg>
