<svg width="108" height="110" viewBox="0 0 108 110" fill="none" xmlns="http://www.w3.org/2000/svg" xmlns:xlink="http://www.w3.org/1999/xlink">
<path d="M71,56.5C72.105,56.5 73,55.605 73,54.5C73,53.395 72.105,52.5 71,52.5L71,56.5ZM36,52.5C34.895,52.5 34,53.395 34,54.5C34,55.605 34.895,56.5 36,56.5L36,52.5ZM106,54.5L108,54.5L106,54.5ZM53.5,2L53.5,4L53.5,2ZM71,52.5L36,52.5L36,56.5L71,56.5L71,52.5ZM104,54.5C104,61.132 102.694,67.699 100.156,73.826L103.851,75.356C106.59,68.744 108,61.657 108,54.5L104,54.5ZM100.156,73.826C97.618,79.952 93.898,85.52 89.209,90.209L92.037,93.037C97.098,87.977 101.113,81.968 103.851,75.356L100.156,73.826ZM89.209,90.209C84.52,94.898 78.952,98.618 72.826,101.156L74.356,104.851C80.968,102.113 86.977,98.098 92.037,93.037L89.209,90.209ZM72.826,101.156C66.699,103.694 60.132,105 53.5,105L53.5,109C60.657,109 67.744,107.59 74.356,104.851L72.826,101.156ZM53.5,105C46.868,105 40.301,103.694 34.174,101.156L32.644,104.851C39.256,107.59 46.343,109 53.5,109L53.5,105ZM34.174,101.156C28.048,98.618 22.48,94.898 17.791,90.209L14.963,93.037C20.023,98.098 26.032,102.113 32.644,104.851L34.174,101.156ZM17.791,90.209C13.102,85.52 9.382,79.952 6.844,73.826L3.149,75.356C5.887,81.968 9.902,87.977 14.963,93.037L17.791,90.209ZM6.844,73.826C4.306,67.699 3,61.132 3,54.5L-1,54.5C-1,61.657 0.41,68.744 3.149,75.356L6.844,73.826ZM3,54.5C3,41.107 8.321,28.262 17.791,18.791L14.963,15.963C4.742,26.183 -1,40.046 -1,54.5L3,54.5ZM17.791,18.791C27.262,9.321 40.107,4 53.5,4L53.5,0C39.046,0 25.183,5.742 14.963,15.963L17.791,18.791ZM53.5,4C66.893,4 79.738,9.321 89.209,18.791L92.037,15.963C81.817,5.742 67.954,0 53.5,0L53.5,4ZM89.209,18.791C98.679,28.262 104,41.107 104,54.5L108,54.5C108,40.046 102.258,26.183 92.037,15.963L89.209,18.791Z" fill="#000000"/>
</svg>
