<svg width="110" height="110" viewBox="0 0 110 110" fill="none" xmlns="http://www.w3.org/2000/svg" xmlns:xlink="http://www.w3.org/1999/xlink">
<path d="M72,56.5C73.105,56.5 74,55.605 74,54.5C74,53.395 73.105,52.5 72,52.5L72,56.5ZM37,52.5C35.895,52.5 35,53.395 35,54.5C35,55.605 35.895,56.5 37,56.5L37,52.5ZM107,54.5L109,54.5L107,54.5ZM54.5,2L54.5,4L54.5,2ZM72,52.5L37,52.5L37,56.5L72,56.5L72,52.5ZM105,54.5C105,61.132 103.694,67.699 101.156,73.826L104.851,75.356C107.59,68.744 109,61.657 109,54.5L105,54.5ZM101.156,73.826C98.618,79.952 94.898,85.52 90.209,90.209L93.037,93.037C98.098,87.977 102.113,81.968 104.851,75.356L101.156,73.826ZM90.209,90.209C85.52,94.898 79.952,98.618 73.826,101.156L75.356,104.851C81.968,102.113 87.977,98.098 93.037,93.037L90.209,90.209ZM73.826,101.156C67.699,103.694 61.132,105 54.5,105L54.5,109C61.657,109 68.744,107.59 75.356,104.851L73.826,101.156ZM54.5,105C47.868,105 41.301,103.694 35.174,101.156L33.644,104.851C40.256,107.59 47.343,109 54.5,109L54.5,105ZM35.174,101.156C29.048,98.618 23.48,94.898 18.791,90.209L15.963,93.037C21.023,98.098 27.032,102.113 33.644,104.851L35.174,101.156ZM18.791,90.209C14.102,85.52 10.382,79.952 7.844,73.826L4.149,75.356C6.887,81.968 10.902,87.977 15.963,93.037L18.791,90.209ZM7.844,73.826C5.306,67.699 4,61.132 4,54.5L0,54.5C0,61.657 1.41,68.744 4.149,75.356L7.844,73.826ZM4,54.5C4,41.107 9.321,28.262 18.791,18.791L15.963,15.963C5.742,26.183 0,40.046 0,54.5L4,54.5ZM18.791,18.791C28.262,9.321 41.107,4 54.5,4L54.5,0C40.046,0 26.183,5.742 15.963,15.963L18.791,18.791ZM54.5,4C67.893,4 80.738,9.321 90.209,18.791L93.037,15.963C82.817,5.742 68.954,0 54.5,0L54.5,4ZM90.209,18.791C99.679,28.262 105,41.107 105,54.5L109,54.5C109,40.046 103.258,26.183 93.037,15.963L90.209,18.791Z" fill="#000000"/>
</svg>
