<svg width="50" height="48" viewBox="0 0 50 48" fill="none" xmlns="http://www.w3.org/2000/svg" xmlns:xlink="http://www.w3.org/1999/xlink">
<path d="M22.071,1.416C22.735,-0.63 25.629,-0.63 26.294,1.416L30.662,14.861C30.96,15.776 31.812,16.395 32.774,16.395L46.911,16.395C49.061,16.395 49.956,19.147 48.216,20.411L36.779,28.721C36.001,29.286 35.675,30.288 35.972,31.203L40.341,44.648C41.005,46.693 38.664,48.394 36.924,47.13L25.487,38.821C24.709,38.255 23.656,38.255 22.877,38.821L11.44,47.13C9.7,48.394 7.359,46.693 8.024,44.648L12.392,31.203C12.69,30.288 12.364,29.286 11.586,28.721L0.149,20.411C-1.591,19.147 -0.697,16.395 1.454,16.395L15.591,16.395C16.553,16.395 17.405,15.776 17.702,14.861L22.071,1.416Z" fill="#FF67D4"/>
</svg>
