<svg width="52" height="48" viewBox="0 0 52 48" fill="none" xmlns="http://www.w3.org/2000/svg" xmlns:xlink="http://www.w3.org/1999/xlink">
<path d="M23.825,1.416C24.489,-0.63 27.383,-0.63 28.048,1.416L32.416,14.861C32.714,15.776 33.566,16.395 34.528,16.395L48.665,16.395C50.815,16.395 51.71,19.147 49.97,20.411L38.533,28.721C37.755,29.286 37.429,30.288 37.726,31.203L42.095,44.648C42.759,46.693 40.418,48.394 38.678,47.13L27.241,38.821C26.463,38.255 25.41,38.255 24.631,38.821L13.194,47.13C11.454,48.394 9.113,46.693 9.778,44.648L14.146,31.203C14.444,30.288 14.118,29.286 13.34,28.721L1.903,20.411C0.163,19.147 1.057,16.395 3.208,16.395L17.345,16.395C18.307,16.395 19.159,15.776 19.456,14.861L23.825,1.416Z" fill="#FF67D4"/>
</svg>
