<svg width="50" height="48" viewBox="0 0 50 48" fill="none" xmlns="http://www.w3.org/2000/svg" xmlns:xlink="http://www.w3.org/1999/xlink">
<path d="M22.448,1.416C23.112,-0.63 26.006,-0.63 26.671,1.416L31.039,14.861C31.337,15.776 32.189,16.395 33.151,16.395L47.288,16.395C49.438,16.395 50.333,19.147 48.593,20.411L37.156,28.721C36.378,29.286 36.052,30.288 36.349,31.203L40.718,44.648C41.382,46.693 39.041,48.394 37.301,47.13L25.864,38.821C25.086,38.255 24.033,38.255 23.254,38.821L11.817,47.13C10.077,48.394 7.736,46.693 8.401,44.648L12.769,31.203C13.067,30.288 12.741,29.286 11.963,28.721L0.526,20.411C-1.214,19.147 -0.32,16.395 1.831,16.395L15.968,16.395C16.93,16.395 17.782,15.776 18.079,14.861L22.448,1.416Z" fill="#FF67D4"/>
</svg>
