<svg width="80" height="94" viewBox="0 0 80 94" fill="none" xmlns="http://www.w3.org/2000/svg" xmlns:xlink="http://www.w3.org/1999/xlink">
<path d="M34.286,0C33.225,0.001 32.185,0.304 31.283,0.876C30.38,1.449 29.651,2.268 29.177,3.241L25.04,11.722L5.714,11.722C4.199,11.722 2.745,12.339 1.674,13.438C0.602,14.537 0,16.028 0,17.582C0,19.137 0.602,20.628 1.674,21.727C2.745,22.826 4.199,23.443 5.714,23.443L5.714,82.051C5.714,85.16 6.918,88.141 9.062,90.34C11.205,92.538 14.112,93.773 17.143,93.773L62.857,93.773C65.888,93.773 68.795,92.538 70.938,90.34C73.082,88.141 74.286,85.16 74.286,82.051L74.286,23.443C75.801,23.443 77.255,22.826 78.326,21.727C79.398,20.628 80,19.137 80,17.582C80,16.028 79.398,14.537 78.326,13.438C77.255,12.339 75.801,11.722 74.286,11.722L54.96,11.722L50.823,3.241C50.349,2.268 49.62,1.449 48.717,0.876C47.815,0.304 46.775,0.001 45.714,0L34.286,0ZM22.857,35.165C22.857,33.61 23.459,32.12 24.531,31.021C25.602,29.922 27.056,29.304 28.571,29.304C30.087,29.304 31.54,29.922 32.612,31.021C33.684,32.12 34.286,33.61 34.286,35.165L34.286,70.33C34.286,71.884 33.684,73.375 32.612,74.474C31.54,75.573 30.087,76.19 28.571,76.19C27.056,76.19 25.602,75.573 24.531,74.474C23.459,73.375 22.857,71.884 22.857,70.33L22.857,35.165ZM51.429,29.304C49.913,29.304 48.46,29.922 47.388,31.021C46.316,32.12 45.714,33.61 45.714,35.165L45.714,70.33C45.714,71.884 46.316,73.375 47.388,74.474C48.46,75.573 49.913,76.19 51.429,76.19C52.944,76.19 54.398,75.573 55.469,74.474C56.541,73.375 57.143,71.884 57.143,70.33L57.143,35.165C57.143,33.61 56.541,32.12 55.469,31.021C54.398,29.922 52.944,29.304 51.429,29.304Z" clip-rule="evenodd" fill-rule="evenodd" fill="#DC1F2A"/>
</svg>
