<svg width="80" height="94" viewBox="0 0 80 94" fill="none" xmlns="http://www.w3.org/2000/svg" xmlns:xlink="http://www.w3.org/1999/xlink">
<path d="M33.286,0C32.225,0.001 31.185,0.304 30.283,0.876C29.38,1.449 28.651,2.268 28.177,3.241L24.04,11.722L4.714,11.722C3.199,11.722 1.745,12.339 0.674,13.438C-0.398,14.537 -1,16.028 -1,17.582C-1,19.137 -0.398,20.628 0.674,21.727C1.745,22.826 3.199,23.443 4.714,23.443L4.714,82.051C4.714,85.16 5.918,88.141 8.062,90.34C10.205,92.538 13.112,93.773 16.143,93.773L61.857,93.773C64.888,93.773 67.795,92.538 69.938,90.34C72.082,88.141 73.286,85.16 73.286,82.051L73.286,23.443C74.801,23.443 76.255,22.826 77.326,21.727C78.398,20.628 79,19.137 79,17.582C79,16.028 78.398,14.537 77.326,13.438C76.255,12.339 74.801,11.722 73.286,11.722L53.96,11.722L49.823,3.241C49.349,2.268 48.62,1.449 47.717,0.876C46.815,0.304 45.775,0.001 44.714,0L33.286,0ZM21.857,35.165C21.857,33.61 22.459,32.12 23.531,31.021C24.602,29.922 26.056,29.304 27.571,29.304C29.087,29.304 30.54,29.922 31.612,31.021C32.684,32.12 33.286,33.61 33.286,35.165L33.286,70.33C33.286,71.884 32.684,73.375 31.612,74.474C30.54,75.573 29.087,76.19 27.571,76.19C26.056,76.19 24.602,75.573 23.531,74.474C22.459,73.375 21.857,71.884 21.857,70.33L21.857,35.165ZM50.429,29.304C48.913,29.304 47.46,29.922 46.388,31.021C45.316,32.12 44.714,33.61 44.714,35.165L44.714,70.33C44.714,71.884 45.316,73.375 46.388,74.474C47.46,75.573 48.913,76.19 50.429,76.19C51.944,76.19 53.398,75.573 54.469,74.474C55.541,73.375 56.143,71.884 56.143,70.33L56.143,35.165C56.143,33.61 55.541,32.12 54.469,31.021C53.398,29.922 51.944,29.304 50.429,29.304Z" clip-rule="evenodd" fill-rule="evenodd" fill="#DC1F2A"/>
</svg>
