<svg width="46" height="44" viewBox="0 0 46 44" fill="none" xmlns="http://www.w3.org/2000/svg" xmlns:xlink="http://www.w3.org/1999/xlink">
<path d="M26.151,40.467L23.983,42.635C23.065,43.553 21.581,43.553 20.673,42.635L1.688,23.66C0.771,22.742 0.771,21.258 1.688,20.35L20.673,1.365C21.591,0.447 23.075,0.447 23.983,1.365L26.151,3.533C27.079,4.461 27.06,5.975 26.112,6.883L14.345,18.094L42.411,18.094C43.71,18.094 44.755,19.139 44.755,20.437L44.755,23.563C44.755,24.861 43.71,25.906 42.411,25.906L14.345,25.906L26.112,37.117C27.069,38.025 27.089,39.539 26.151,40.467Z" fill="#000000"/>
</svg>
