<svg width="30" height="28" viewBox="0 0 30 28" fill="none" xmlns="http://www.w3.org/2000/svg" xmlns:xlink="http://www.w3.org/1999/xlink">
<path d="M17.813,22.375L14.063,22.375C13.814,22.375 13.575,22.474 13.4,22.65C13.224,22.825 13.125,23.064 13.125,23.312L13.125,25.187C13.125,25.436 13.224,25.675 13.4,25.85C13.575,26.026 13.814,26.125 14.063,26.125L17.813,26.125C18.061,26.125 18.3,26.026 18.475,25.85C18.651,25.675 18.75,25.436 18.75,25.187L18.75,23.312C18.75,23.064 18.651,22.825 18.475,22.65C18.3,22.474 18.061,22.375 17.813,22.375ZM10.313,18.625L7.5,18.625L7.5,0.812C7.5,0.564 7.401,0.325 7.225,0.15C7.05,-0.026 6.811,-0.125 6.563,-0.125L4.688,-0.125C4.439,-0.125 4.2,-0.026 4.025,0.15C3.849,0.325 3.75,0.564 3.75,0.812L3.75,18.625L0.938,18.625C0.106,18.625 -0.315,19.635 0.276,20.225L4.964,25.85C5.139,26.026 5.378,26.125 5.626,26.125C5.875,26.125 6.113,26.026 6.289,25.85L10.976,20.225C11.564,19.636 11.146,18.625 10.313,18.625ZM25.313,7.375L14.063,7.375C13.814,7.375 13.575,7.474 13.4,7.65C13.224,7.825 13.125,8.064 13.125,8.312L13.125,10.187C13.125,10.436 13.224,10.675 13.4,10.85C13.575,11.026 13.814,11.125 14.063,11.125L25.313,11.125C25.561,11.125 25.8,11.026 25.975,10.85C26.151,10.675 26.25,10.436 26.25,10.187L26.25,8.312C26.25,8.064 26.151,7.825 25.975,7.65C25.8,7.474 25.561,7.375 25.313,7.375ZM21.563,14.875L14.063,14.875C13.814,14.875 13.575,14.974 13.4,15.15C13.224,15.325 13.125,15.564 13.125,15.812L13.125,17.687C13.125,17.936 13.224,18.175 13.4,18.35C13.575,18.526 13.814,18.625 14.063,18.625L21.563,18.625C21.811,18.625 22.05,18.526 22.225,18.35C22.401,18.175 22.5,17.936 22.5,17.687L22.5,15.812C22.5,15.564 22.401,15.325 22.225,15.15C22.05,14.974 21.811,14.875 21.563,14.875ZM29.062,-0.125L14.063,-0.125C13.814,-0.125 13.575,-0.026 13.4,0.15C13.224,0.325 13.125,0.564 13.125,0.812L13.125,2.688C13.125,2.936 13.224,3.175 13.4,3.35C13.575,3.526 13.814,3.625 14.063,3.625L29.062,3.625C29.311,3.625 29.55,3.526 29.725,3.35C29.901,3.175 30,2.936 30,2.688L30,0.812C30,0.564 29.901,0.325 29.725,0.15C29.55,-0.026 29.311,-0.125 29.062,-0.125Z" fill="#000000"/>
</svg>
