<svg width="44" height="44" viewBox="0 0 44 44" fill="none" xmlns="http://www.w3.org/2000/svg" xmlns:xlink="http://www.w3.org/1999/xlink">
<path d="M25.151,40.467L22.983,42.635C22.065,43.553 20.581,43.553 19.673,42.635L0.688,23.66C-0.229,22.742 -0.229,21.258 0.688,20.35L19.673,1.365C20.591,0.447 22.075,0.447 22.983,1.365L25.151,3.533C26.079,4.461 26.06,5.975 25.112,6.883L13.345,18.094L41.411,18.094C42.71,18.094 43.755,19.139 43.755,20.437L43.755,23.563C43.755,24.861 42.71,25.906 41.411,25.906L13.345,25.906L25.112,37.117C26.069,38.025 26.089,39.539 25.151,40.467Z" fill="#000000"/>
</svg>
