<svg width="30" height="30" viewBox="0 0 30 30" fill="none" xmlns="http://www.w3.org/2000/svg" xmlns:xlink="http://www.w3.org/1999/xlink">
<path d="M29,18.489L29,29.52L22.543,29.52L22.543,19.161C22.543,16.605 21.601,14.856 19.314,14.856C17.565,14.856 16.489,16.067 16.085,17.144C15.951,17.547 15.816,18.085 15.816,18.758L15.816,29.52L9.359,29.52C9.359,29.52 9.493,12.031 9.359,10.283L15.816,10.283L15.816,12.973C16.623,11.628 18.238,9.744 21.601,9.744C25.771,9.744 29,12.57 29,18.489ZM2.632,1C0.48,1 -1,2.48 -1,4.363C-1,6.247 0.345,7.726 2.498,7.726C4.785,7.726 6.13,6.247 6.13,4.363C6.265,2.345 4.919,1 2.632,1ZM-0.596,29.52L5.861,29.52L5.861,10.283L-0.596,10.283L-0.596,29.52Z" fill="#3A4F39"/>
</svg>
