<svg width="50" height="50" viewBox="0 0 50 50" fill="none" xmlns="http://www.w3.org/2000/svg" xmlns:xlink="http://www.w3.org/1999/xlink">
<path d="M49,24C49,37.376 38.157,48.219 24.781,48.219C11.406,48.219 0.563,37.376 0.563,24C0.563,10.624 11.406,-0.219 24.781,-0.219C38.157,-0.219 49,10.624 49,24ZM21.98,36.824L39.949,18.855C40.559,18.245 40.559,17.255 39.949,16.645L37.739,14.436C37.129,13.825 36.14,13.825 35.529,14.436L20.875,29.09L14.033,22.248C13.423,21.638 12.434,21.638 11.824,22.248L9.614,24.458C9.004,25.068 9.004,26.057 9.614,26.667L19.77,36.823C20.38,37.434 21.37,37.434 21.98,36.824Z" fill="#42EA53"/>
</svg>
