<svg width="40" height="34" viewBox="0 0 40 34" fill="none" xmlns="http://www.w3.org/2000/svg" xmlns:xlink="http://www.w3.org/1999/xlink">
<path d="M38.2,4.8C36.8,5.4 35.2,5.8 33.6,6C35.2,5 36.6,3.4 37.2,1.6C35.6,2.6 34,3.2 32,3.6C30.6,2 28.4,1 26.2,1C21.8,1 18.2,4.6 18.2,9C18.2,9.6 18.2,10.2 18.4,10.8C11.8,10.4 5.8,7.2 1.8,2.4C1.2,3.6 0.8,5 0.8,6.4C0.8,9.2 2.2,11.6 4.4,13C3,13 1.8,12.6 0.8,12C0.8,15.8 3.6,19.2 7.2,19.8C6.6,20 5.8,20 5,20C4.4,20 4,20 3.4,19.8C4.4,23 7.4,25.4 11,25.4C8.2,27.6 4.8,28.8 1,28.8C0.4,28.8 -0.2,28.8 -1,28.6C2.6,30.8 6.8,32.2 11.4,32.2C26.2,32.2 34.2,20 34.2,9.4L34.2,8.4C35.8,7.8 37.2,6.4 38.2,4.8Z" fill="#3A4F39"/>
</svg>
