<svg width="44" height="44" viewBox="0 0 44 44" fill="none" xmlns="http://www.w3.org/2000/svg" xmlns:xlink="http://www.w3.org/1999/xlink">
<path d="M24.397,40.467L22.229,42.635C21.311,43.553 19.826,43.553 18.918,42.635L-0.066,23.66C-0.984,22.742 -0.984,21.258 -0.066,20.35L18.918,1.365C19.836,0.447 21.32,0.447 22.229,1.365L24.397,3.533C25.324,4.461 25.305,5.975 24.358,6.883L12.59,18.094L40.656,18.094C41.955,18.094 43,19.139 43,20.437L43,23.563C43,24.861 41.955,25.906 40.656,25.906L12.59,25.906L24.358,37.117C25.315,38.025 25.334,39.539 24.397,40.467Z" transform="rotate(-360 21.123 22)" fill="#000000"/>
</svg>
