<svg width="48" height="50" viewBox="0 0 48 50" fill="none" xmlns="http://www.w3.org/2000/svg" xmlns:xlink="http://www.w3.org/1999/xlink">
<path d="M48,24C48,37.376 37.157,48.219 23.781,48.219C10.406,48.219 -0.438,37.376 -0.438,24C-0.438,10.624 10.406,-0.219 23.781,-0.219C37.157,-0.219 48,10.624 48,24ZM20.98,36.824L38.949,18.855C39.559,18.245 39.559,17.255 38.949,16.645L36.739,14.436C36.129,13.825 35.14,13.825 34.529,14.436L19.875,29.09L13.033,22.248C12.423,21.638 11.434,21.638 10.824,22.248L8.614,24.458C8.004,25.068 8.004,26.057 8.614,26.667L18.77,36.823C19.38,37.434 20.37,37.434 20.98,36.824Z" fill="#42EA53"/>
</svg>
