<svg width="44" height="44" viewBox="0 0 44 44" fill="none" xmlns="http://www.w3.org/2000/svg" xmlns:xlink="http://www.w3.org/1999/xlink">
<path d="M25.397,40.467L23.229,42.635C22.311,43.553 20.826,43.553 19.918,42.635L0.934,23.66C0.016,22.742 0.016,21.258 0.934,20.35L19.918,1.365C20.836,0.447 22.32,0.447 23.229,1.365L25.397,3.533C26.324,4.461 26.305,5.975 25.358,6.883L13.59,18.094L41.656,18.094C42.955,18.094 44,19.139 44,20.437L44,23.563C44,24.861 42.955,25.906 41.656,25.906L13.59,25.906L25.358,37.117C26.315,38.025 26.334,39.539 25.397,40.467Z" transform="rotate(-360 22.123 22)" fill="#000000"/>
</svg>
