<svg width="30" height="28" viewBox="0 0 30 28" fill="none" xmlns="http://www.w3.org/2000/svg" xmlns:xlink="http://www.w3.org/1999/xlink">
<path d="M29,16.489L29,27.52L22.543,27.52L22.543,17.161C22.543,14.605 21.601,12.856 19.314,12.856C17.565,12.856 16.489,14.067 16.085,15.144C15.951,15.547 15.816,16.085 15.816,16.758L15.816,27.52L9.359,27.52C9.359,27.52 9.493,10.031 9.359,8.283L15.816,8.283L15.816,10.973C16.623,9.628 18.238,7.744 21.601,7.744C25.771,7.744 29,10.57 29,16.489ZM2.632,-1C0.48,-1 -1,0.48 -1,2.363C-1,4.247 0.345,5.726 2.498,5.726C4.785,5.726 6.13,4.247 6.13,2.363C6.265,0.345 4.919,-1 2.632,-1ZM-0.596,27.52L5.861,27.52L5.861,8.283L-0.596,8.283L-0.596,27.52Z" fill="#3A4F39"/>
</svg>
