<svg width="40" height="32" viewBox="0 0 40 32" fill="none" xmlns="http://www.w3.org/2000/svg" xmlns:xlink="http://www.w3.org/1999/xlink">
<path d="M38.2,2.8C36.8,3.4 35.2,3.8 33.6,4C35.2,3 36.6,1.4 37.2,-0.4C35.6,0.6 34,1.2 32,1.6C30.6,0 28.4,-1 26.2,-1C21.8,-1 18.2,2.6 18.2,7C18.2,7.6 18.2,8.2 18.4,8.8C11.8,8.4 5.8,5.2 1.8,0.4C1.2,1.6 0.8,3 0.8,4.4C0.8,7.2 2.2,9.6 4.4,11C3,11 1.8,10.6 0.8,10C0.8,13.8 3.6,17.2 7.2,17.8C6.6,18 5.8,18 5,18C4.4,18 4,18 3.4,17.8C4.4,21 7.4,23.4 11,23.4C8.2,25.6 4.8,26.8 1,26.8C0.4,26.8 -0.2,26.8 -1,26.6C2.6,28.8 6.8,30.2 11.4,30.2C26.2,30.2 34.2,18 34.2,7.4L34.2,6.4C35.8,5.8 37.2,4.4 38.2,2.8Z" fill="#3A4F39"/>
</svg>
