<svg width="30" height="28" viewBox="0 0 30 28" fill="none" xmlns="http://www.w3.org/2000/svg" xmlns:xlink="http://www.w3.org/1999/xlink">
<path d="M17.813,23.375L14.063,23.375C13.814,23.375 13.575,23.474 13.4,23.65C13.224,23.825 13.125,24.064 13.125,24.312L13.125,26.187C13.125,26.436 13.224,26.675 13.4,26.85C13.575,27.026 13.814,27.125 14.063,27.125L17.813,27.125C18.061,27.125 18.3,27.026 18.475,26.85C18.651,26.675 18.75,26.436 18.75,26.187L18.75,24.312C18.75,24.064 18.651,23.825 18.475,23.65C18.3,23.474 18.061,23.375 17.813,23.375ZM10.313,19.625L7.5,19.625L7.5,1.812C7.5,1.564 7.401,1.325 7.225,1.15C7.05,0.974 6.811,0.875 6.563,0.875L4.688,0.875C4.439,0.875 4.2,0.974 4.025,1.15C3.849,1.325 3.75,1.564 3.75,1.812L3.75,19.625L0.938,19.625C0.106,19.625 -0.315,20.635 0.276,21.225L4.964,26.85C5.139,27.026 5.378,27.125 5.626,27.125C5.875,27.125 6.113,27.026 6.289,26.85L10.976,21.225C11.564,20.636 11.146,19.625 10.313,19.625ZM25.313,8.375L14.063,8.375C13.814,8.375 13.575,8.474 13.4,8.65C13.224,8.825 13.125,9.064 13.125,9.312L13.125,11.187C13.125,11.436 13.224,11.675 13.4,11.85C13.575,12.026 13.814,12.125 14.063,12.125L25.313,12.125C25.561,12.125 25.8,12.026 25.975,11.85C26.151,11.675 26.25,11.436 26.25,11.187L26.25,9.312C26.25,9.064 26.151,8.825 25.975,8.65C25.8,8.474 25.561,8.375 25.313,8.375ZM21.563,15.875L14.063,15.875C13.814,15.875 13.575,15.974 13.4,16.15C13.224,16.325 13.125,16.564 13.125,16.812L13.125,18.687C13.125,18.936 13.224,19.175 13.4,19.35C13.575,19.526 13.814,19.625 14.063,19.625L21.563,19.625C21.811,19.625 22.05,19.526 22.225,19.35C22.401,19.175 22.5,18.936 22.5,18.687L22.5,16.812C22.5,16.564 22.401,16.325 22.225,16.15C22.05,15.974 21.811,15.875 21.563,15.875ZM29.062,0.875L14.063,0.875C13.814,0.875 13.575,0.974 13.4,1.15C13.224,1.325 13.125,1.564 13.125,1.812L13.125,3.688C13.125,3.936 13.224,4.175 13.4,4.35C13.575,4.526 13.814,4.625 14.063,4.625L29.062,4.625C29.311,4.625 29.55,4.526 29.725,4.35C29.901,4.175 30,3.936 30,3.688L30,1.812C30,1.564 29.901,1.325 29.725,1.15C29.55,0.974 29.311,0.875 29.062,0.875Z" fill="#000000"/>
</svg>
